<?xml version="1.0" encoding="utf-8"?>
<!-- Generator: Adobe Illustrator 26.0.2, SVG Export Plug-In . SVG Version: 6.00 Build 0)  -->
<svg version="1.1" id="Layer_1" xmlns="http://www.w3.org/2000/svg" xmlns:xlink="http://www.w3.org/1999/xlink" x="0px" y="0px"
	 viewBox="0 0 1396.7 2392.7" style="enable-background:new 0 0 1396.7 2392.7;" xml:space="preserve">
<style type="text/css">
	.st0{clip-path:url(#SVGID_00000059280458009822510470000015249325326166955402_);}
	.st1{fill:#64AB9F;stroke:#000000;stroke-miterlimit:10;}
	.st2{fill:none;stroke:#000000;stroke-width:2;stroke-miterlimit:10;}
	.st3{font-family:'Arial-BoldMT';}
	.st4{font-size:66px;}
	.st5{font-size:48.6906px;}
	.st6{font-size:50.8076px;}
	.st7{fill:#E27525;stroke:#000000;stroke-miterlimit:10;}
	.st8{font-size:47.7951px;}
	.st9{opacity:0.2;fill:#4D4D4F;enable-background:new    ;}
	.st10{opacity:0.3;fill:#6899E8;enable-background:new    ;}
	.st11{font-family:'ArialMT';}
	.st12{font-size:38px;}
	.st13{font-size:49.8731px;}
	.st14{opacity:0.1;fill:#4D4D4F;enable-background:new    ;}
	.st15{opacity:0.15;fill:#4D4D4F;enable-background:new    ;}
	.st16{clip-path:url(#SVGID_00000091726217166102865460000007907736972691060864_);}
	.st17{fill:#FFFFFF;}
	.st18{font-family:'Helvetica';}
	.st19{font-size:27px;}
</style>
<g id="EFTU-RelSubsRate.tiff">
	<g>
		<g>
			<defs>
				<rect id="SVGID_1_" x="67.5" y="1680.5" width="1250.8" height="600"/>
			</defs>
			<clipPath id="SVGID_00000155852295481042732230000007310394900138649756_">
				<use xlink:href="#SVGID_1_"  style="overflow:visible;"/>
			</clipPath>
			<g style="clip-path:url(#SVGID_00000155852295481042732230000007310394900138649756_);">
				
					<image style="overflow:visible;enable-background:new    ;" width="1322" height="634" id="Layer_0_00000078739110871865866250000000519855696087956157_" xlink:href="../../Fer-2022-February/Figures/svg/F1CD1D3941827C4E.png"  transform="matrix(0.9371 0 0 0.989 73.5114 1666.9446)">
				</image>
			</g>
		</g>
	</g>
</g>
<rect x="155.3" y="764" class="st1" width="1164.8" height="55.3"/>
<line class="st2" x1="885" y1="764" x2="885.1" y2="819.3"/>
<image style="overflow:visible;enable-background:new    ;" width="1232" height="1383" xlink:href="../../Fer-2022-February/Figures/svg/2A64DE6475F9DD54.png"  transform="matrix(0.3967 0 0 0.4169 818.1711 69.1278)">
</image>
<image style="overflow:visible;enable-background:new    ;" width="1190" height="1319" xlink:href="../../Fer-2022-February/Figures/svg/2A64DE6475F9DD55.png"  transform="matrix(0.4315 0 0 0.4315 179.4301 76.594)">
</image>
<text transform="matrix(1 0 0 1 29.8477 65.3948)" class="st3 st4">A</text>
<text transform="matrix(1 0 0 1 34.6662 1523.6798)" class="st3 st4">C</text>
<line class="st2" x1="357.8" y1="764.4" x2="357.9" y2="819.6"/>
<line class="st2" x1="535.9" y1="764.4" x2="536" y2="819.6"/>
<line class="st2" x1="657.4" y1="764" x2="657.6" y2="819.3"/>
<line class="st2" x1="1011.7" y1="764" x2="1011.9" y2="819.3"/>
<line class="st2" x1="1187.6" y1="763.5" x2="1187.7" y2="818.9"/>
<text transform="matrix(1 0 0 1 222.0386 809.0173)" class="st3 st5">N1</text>
<text transform="matrix(1 0 0 1 417.5796 809.5994)" class="st3 st5">N2</text>
<text transform="matrix(1 0 0 1 560.1885 809.0173)" class="st3 st5">G1</text>
<text transform="matrix(1 0 0 1 740.8452 809.0173)" class="st3 st5">G2</text>
<text transform="matrix(1 0 0 1 917.3916 809.0173)" class="st3 st5">G3</text>
<text transform="matrix(1 0 0 1 1072.6885 809.0173)" class="st3 st5">C1</text>
<text transform="matrix(1 0 0 1 1222.9688 809.0173)" class="st3 st5">C2</text>
<text transform="matrix(1 0 0 1 704.6831 735.3884)" class="st3 st6">IF2</text>
<rect x="150.7" y="1607.2" class="st7" width="1165.3" height="54.2"/>
<line class="st2" x1="759" y1="1607.2" x2="759.1" y2="1661.6"/>
<line class="st2" x1="1024.9" y1="1607.2" x2="1025" y2="1661.6"/>
<text transform="matrix(1 0 0 1 434.7155 1652.5839)" class="st3 st8">G</text>
<text transform="matrix(1 0 0 1 857.5172 1652.5839)" class="st3 st8">D-II</text>
<text transform="matrix(1 0 0 1 1143.7252 1652.5839)" class="st3 st8">D-III</text>
<rect x="801.9" y="2311.5" class="st9" width="45" height="45"/>
<rect x="294" y="2311.5" class="st10" width="45" height="45"/>
<rect x="294" y="2311.5" class="st2" width="45" height="45"/>
<rect x="801.9" y="2311.5" class="st2" width="45" height="45"/>
<text transform="matrix(1 0 0 1 356.7671 2346.3396)" class="st11 st12">GTP-binding domain</text>
<text transform="matrix(1 0 0 1 867.707 2346.3396)" class="st11 st12">tRNA-binding domain</text>
<text transform="matrix(1 0 0 1 663.9235 1574.5223)" class="st3 st13">EF-</text>
<text transform="matrix(1 0 0 1 744.2614 1574.5223)" class="st3 st13">T</text>
<text transform="matrix(1 0 0 1 771.026 1574.5223)" class="st3 st13">u</text>
<text transform="matrix(1 0 0 1 29.8481 715.0422)" class="st3 st4">B</text>
<rect x="660.8" y="846.1" class="st14" width="225.6" height="524.3"/>
<rect x="1190.9" y="846.1" class="st9" width="124.9" height="524.3"/>
<rect x="761.9" y="1677.3" class="st15" width="263" height="542"/>
<g id="IF2-RelSubsRate.tiff">
	<g>
		<g>
			<defs>
				<rect id="SVGID_00000015339307689760637950000013754383441959972736_" x="74.3" y="840.4" width="1250.8" height="600"/>
			</defs>
			<clipPath id="SVGID_00000114763752469994941410000016243780070953403792_">
				<use xlink:href="#SVGID_00000015339307689760637950000013754383441959972736_"  style="overflow:visible;"/>
			</clipPath>
			<g style="clip-path:url(#SVGID_00000114763752469994941410000016243780070953403792_);">
				
					<image style="overflow:visible;enable-background:new    ;" width="1322" height="634" id="Layer_0_00000051383794889661847440000016561449055552810382_" xlink:href="../../Fer-2022-February/Figures/svg/F1CD1D3941827C52.png"  transform="matrix(0.9371 0 0 0.989 80.2564 826.8827)">
				</image>
			</g>
		</g>
	</g>
</g>
<rect x="660.8" y="840.4" class="st10" width="224.2" height="542"/>
<rect x="150.7" y="1677.3" class="st10" width="608.3" height="544"/>
<rect x="1186.8" y="840.4" class="st15" width="131.5" height="542"/>
<rect x="112.9" y="832.3" class="st17" width="39.5" height="17.4"/>
<text transform="matrix(1 0 0 1 117.3227 852.2587)" class="st18 st19">2.0</text>
<rect x="84.3" y="1666.9" class="st17" width="61.4" height="30.8"/>
<text transform="matrix(1 0 0 1 107.1251 1691.1566)" class="st18 st19">2.0</text>
</svg>
