<?xml version="1.0" encoding="utf-8"?>
<!-- Generator: Adobe Illustrator 26.2.1, SVG Export Plug-In . SVG Version: 6.00 Build 0)  -->
<svg version="1.1" id="Layer_1" xmlns="http://www.w3.org/2000/svg" xmlns:xlink="http://www.w3.org/1999/xlink" x="0px" y="0px"
	 viewBox="0 0 2653 1505.7" style="enable-background:new 0 0 2653 1505.7;" xml:space="preserve">
<style type="text/css">
	.st0{fill:url(#SVGID_1_);stroke:#050505;stroke-width:2;stroke-miterlimit:10;}
	.st1{fill:url(#SVGID_00000181803193636223980060000015917293642385109141_);stroke:#050505;stroke-width:2;stroke-miterlimit:10;}
	.st2{fill:url(#SVGID_00000002362431057396015680000002688540282888539567_);stroke:#050505;stroke-width:2;stroke-miterlimit:10;}
	.st3{fill:url(#SVGID_00000000917335929535083280000001421661885497893271_);stroke:#050505;stroke-width:2;stroke-miterlimit:10;}
	.st4{fill:none;stroke:#040404;stroke-width:2;stroke-linecap:round;stroke-linejoin:round;stroke-miterlimit:10;}
	.st5{fill:#4A2B7C;stroke:#050505;stroke-width:2;stroke-miterlimit:10;}
	.st6{fill:#040404;}
	.st7{font-family:'Arial-BoldMT';}
	.st8{font-size:51.9741px;}
	.st9{fill:none;stroke:#000000;stroke-width:2;stroke-miterlimit:10;}
	.st10{fill:none;stroke:#000000;stroke-width:3;stroke-miterlimit:10;}
	.st11{clip-path:url(#SVGID_00000062180846590553173840000017170937184882884287_);}
	.st12{fill:#020202;}
	.st13{font-size:42.3751px;}
	.st14{font-size:50px;}
	.st15{fill:url(#SVGID_00000059291874735967942640000010580156742947018165_);stroke:#030303;stroke-width:2;stroke-miterlimit:10;}
	.st16{fill:url(#SVGID_00000017495438592159481070000009001104938968125357_);stroke:#030303;stroke-width:2;stroke-miterlimit:10;}
	.st17{fill:url(#SVGID_00000111910017078288724400000012799592137667408053_);stroke:#030303;stroke-width:2;stroke-miterlimit:10;}
	.st18{fill:url(#SVGID_00000096748020590192002870000016580220210297197975_);stroke:#030303;stroke-width:2;stroke-miterlimit:10;}
	.st19{fill:none;stroke:#010101;stroke-width:2;stroke-linecap:round;stroke-linejoin:round;stroke-miterlimit:10;}
	.st20{fill:#5D3E8E;stroke:#030303;stroke-width:2;stroke-miterlimit:10;}
	.st21{font-size:38px;}
	.st22{clip-path:url(#SVGID_00000152243252496912110810000006359972560140330655_);}
	.st23{clip-path:url(#SVGID_00000119084519638423842460000012792431739259541383_);}
	.st24{font-family:'ArialMT';}
	.st25{font-size:30px;}
	.st26{font-family:'Arial-ItalicMT';}
	.st27{fill:none;stroke:#020202;stroke-width:2;stroke-miterlimit:10;}
	.st28{font-size:41px;}
	.st29{font-size:45.7156px;}
	.st30{font-size:45.7125px;}
	.st31{fill:#979797;stroke:#000000;stroke-width:2;stroke-miterlimit:10;}
	.st32{font-size:36px;}
	.st33{font-size:34px;}
</style>
<image style="overflow:visible;enable-background:new    ;" width="836" height="540" xlink:href="C0AC274F67ADE54D.png"  transform="matrix(1 0 0 1.0461 981 861.0803)">
</image>
<image style="overflow:visible;enable-background:new    ;" width="424" height="745" xlink:href="80FFC3D3F32AC6B.png"  transform="matrix(0.7675 5.191213e-03 -5.191213e-03 0.7675 466.2971 109.0749)">
</image>
<g>
	
		<linearGradient id="SVGID_1_" gradientUnits="userSpaceOnUse" x1="9023.251" y1="-2130.3416" x2="9158.5508" y2="-2130.3416" gradientTransform="matrix(-1 0 0 1 9227.5508 2506.2915)">
		<stop  offset="0" style="stop-color:#FFFFFF"/>
		<stop  offset="1" style="stop-color:#579E8E;stop-opacity:0.4"/>
	</linearGradient>
	<path class="st0" d="M204.3,376L69,310.1v131.7L204.3,376z"/>
	
		<linearGradient id="SVGID_00000015337927344211019890000004843514549100835519_" gradientUnits="userSpaceOnUse" x1="8954.251" y1="-2262.0916" x2="9081.751" y2="-2262.0916" gradientTransform="matrix(-1 0 0 1 9227.5508 2506.2915)">
		<stop  offset="0" style="stop-color:#FFFFFF"/>
		<stop  offset="1" style="stop-color:#579E8E"/>
	</linearGradient>
	
		<path style="fill:url(#SVGID_00000015337927344211019890000004843514549100835519_);stroke:#050505;stroke-width:2;stroke-miterlimit:10;" d="
		M273.3,244.2l-127.5-65.9v131.8L273.3,244.2z"/>
	
		<linearGradient id="SVGID_00000172415054127746018290000005175429713961034943_" gradientUnits="userSpaceOnUse" x1="8970.1504" y1="-1866.9415" x2="9077.751" y2="-1866.9415" gradientTransform="matrix(-1 0 0 1 9227.5508 2506.2915)">
		<stop  offset="0" style="stop-color:#FFFFFF"/>
		<stop  offset="1" style="stop-color:#D9601F;stop-opacity:0.3"/>
	</linearGradient>
	
		<path style="fill:url(#SVGID_00000172415054127746018290000005175429713961034943_);stroke:#050505;stroke-width:2;stroke-miterlimit:10;" d="
		M257.4,639.4l-107.6-65.9v131.7L257.4,639.4z"/>
	
		<linearGradient id="SVGID_00000014601693722103272230000006764368239274947465_" gradientUnits="userSpaceOnUse" x1="9018.0508" y1="-1998.6415" x2="9093.5508" y2="-1998.6415" gradientTransform="matrix(-1 0 0 1 9227.5508 2506.2915)">
		<stop  offset="0" style="stop-color:#FFFFFF"/>
		<stop  offset="1" style="stop-color:#D9601F"/>
	</linearGradient>
	
		<path style="fill:url(#SVGID_00000014601693722103272230000006764368239274947465_);stroke:#050505;stroke-width:2;stroke-miterlimit:10;" d="
		M209.5,507.7L134,441.8v131.7L209.5,507.7z"/>
	<path class="st4" d="M273.3,244.2h31.4v65.9"/>
	<path class="st4" d="M304.7,310.1H410v131.7"/>
	<path class="st4" d="M257.4,639.4h47.4v-65.9"/>
	<path class="st4" d="M430.9,441.8h-21"/>
	<path class="st4" d="M209.5,507.7h95.3v65.9"/>
	<path class="st4" d="M204.3,376h100.4v-65.9"/>
	<path class="st4" d="M304.8,573.5H410V441.8"/>
	<circle class="st5" cx="410" cy="441.8" r="13.4"/>
	<text transform="matrix(-1 0 0 1 155.0947 151.7596)" class="st6 st7 st8"> </text>
</g>
<g>
	<g>
		<line class="st9" x1="422.7" y1="421.6" x2="450.3" y2="414.2"/>
		<g>
			<polygon points="449.6,423.9 462.1,410.9 446.1,405.8 			"/>
		</g>
	</g>
</g>
<ellipse class="st10" cx="637.8" cy="260.3" rx="128.4" ry="126.6"/>
<line class="st10" x1="648.3" y1="134" x2="981" y2="122.4"/>
<g id="GTP-BINDING.tif">
	<g>
		<g>
			<g>
				<g>
					<defs>
						<rect id="SVGID_00000174570580987252603020000013287121318154550158_" x="981" y="122.4" width="835.3" height="539.5"/>
					</defs>
					<clipPath id="SVGID_00000048470783256221939470000011459531920330495670_">
						<use xlink:href="#SVGID_00000174570580987252603020000013287121318154550158_"  style="overflow:visible;"/>
					</clipPath>
					
						<g transform="matrix(1 0 0 1 0 7.629395e-06)" style="clip-path:url(#SVGID_00000048470783256221939470000011459531920330495670_);">
						
							<image style="overflow:visible;enable-background:new    ;" width="2051" height="1457" id="Layer_0_00000036958407334196029440000016189409387222527401_" xlink:href="C0AC274F67ADE557.png"  transform="matrix(0.3611 0 0 0.3611 1014.7591 122.2243)">
						</image>
					</g>
				</g>
			</g>
		</g>
	</g>
</g>
<rect x="981" y="122.4" class="st10" width="835.3" height="587.6"/>
<text transform="matrix(1 0 0 1 1010.6024 666.9796)" class="st12 st7 st13">His-61</text>
<text transform="matrix(1 0 0 1 1230.3947 653.2054)" class="st12 st7 st13">Val-13</text>
<text transform="matrix(1 0 0 1 1620.8334 376.3002)" class="st12 st7 st13">Asp-115</text>
<text transform="matrix(1 0 0 1 22.4049 56.8397)" class="st12 st7 st14">A </text>
<text transform="matrix(1 0 0 1 1844.0332 56.8401)" class="st12 st7 st14">B</text>
<text transform="matrix(1 0 0 1 24.7547 817.2283)" class="st12 st7 st14">C </text>
<g>
	
		<linearGradient id="SVGID_00000113314418670624859580000017583934499404167851_" gradientUnits="userSpaceOnUse" x1="10338.749" y1="1289.9658" x2="10554.4492" y2="1289.9658" gradientTransform="matrix(-1 0 0 -1 10633.9492 2286.9658)">
		<stop  offset="0" style="stop-color:#FFFFFF"/>
		<stop  offset="1" style="stop-color:#67AC9F"/>
	</linearGradient>
	
		<path style="fill:url(#SVGID_00000113314418670624859580000017583934499404167851_);stroke:#030303;stroke-width:2;stroke-miterlimit:10;" d="
		M79.5,932.7v128.6L295.2,997L79.5,932.7"/>
	
		<linearGradient id="SVGID_00000041266214478077193660000003686365032945932206_" gradientUnits="userSpaceOnUse" x1="10358.4492" y1="904.0659" x2="10481.249" y2="904.0659" gradientTransform="matrix(-1 0 0 -1 10633.9492 2286.9658)">
		<stop  offset="0" style="stop-color:#FFFFFF"/>
		<stop  offset="1" style="stop-color:#E27528;stop-opacity:0.3"/>
	</linearGradient>
	
		<path style="fill:url(#SVGID_00000041266214478077193660000003686365032945932206_);stroke:#030303;stroke-width:2;stroke-miterlimit:10;" d="
		M275.5,1382.9l-122.8-64.3v128.6L275.5,1382.9z"/>
	
		<linearGradient id="SVGID_00000158023732116478015360000007494520673748658311_" gradientUnits="userSpaceOnUse" x1="10398.5488" y1="1032.6659" x2="10492.9492" y2="1032.6659" gradientTransform="matrix(-1 0 0 -1 10633.9492 2286.9658)">
		<stop  offset="0" style="stop-color:#FFFFFF"/>
		<stop  offset="1" style="stop-color:#E27528"/>
	</linearGradient>
	
		<path style="fill:url(#SVGID_00000158023732116478015360000007494520673748658311_);stroke:#030303;stroke-width:2;stroke-miterlimit:10;" d="
		M235.4,1254.3L141,1190v128.6L235.4,1254.3z"/>
	
		<linearGradient id="SVGID_00000125564290675401009000000006980685175609111999_" gradientUnits="userSpaceOnUse" x1="10313.5488" y1="1161.3658" x2="10509.9492" y2="1161.3658" gradientTransform="matrix(-1 0 0 -1 10633.9492 2286.9658)">
		<stop  offset="0" style="stop-color:#FFFFFF"/>
		<stop  offset="1" style="stop-color:#67AC9F;stop-opacity:0.4"/>
	</linearGradient>
	
		<path style="fill:url(#SVGID_00000125564290675401009000000006980685175609111999_);stroke:#030303;stroke-width:2;stroke-miterlimit:10;" d="
		M320.4,1125.7L124,1061.3v128.6L320.4,1125.7z"/>
	<path class="st19" d="M295.2,997h99.7v64.3"/>
	<path class="st19" d="M320.4,1125.7h74.5v-64.3"/>
	<path class="st19" d="M394.9,1061.3h17.6v128.6"/>
	<path class="st19" d="M290.9,1318.6h121.6V1190"/>
	<path class="st19" d="M275.5,1382.9h15.4v-64.3"/>
	<path class="st19" d="M235.4,1254.3h55.5v64.3"/>
	<path class="st19" d="M429.5,1190h-16.9"/>
	<circle class="st20" cx="411.3" cy="1187.5" r="13.1"/>
</g>
<text transform="matrix(1 0 0 1 127.8202 91.8004)" class="st12 st7 st21">IF2/EF-Tu Tree</text>
<text transform="matrix(1 0 0 1 154.4329 833.6992)" class="st12 st7 st21">C2/D-II Tree</text>
<image style="overflow:visible;enable-background:new    ;" width="1431" height="1396" xlink:href="C0AC274F67ADE549.png"  transform="matrix(0.3007 0 0 0.3094 510.1798 886.5833)">
</image>
<text transform="matrix(1 0 0 1 605.6284 833.6995)" class="st12 st7 st21">LCA C2/D-II</text>
<ellipse class="st10" cx="711.8" cy="1228.4" rx="153" ry="90.2"/>
<line class="st10" x1="638.5" y1="1307.6" x2="978.7" y2="1427.1"/>
<text transform="matrix(1 0 0 1 1847.6833 817.8275)" class="st12 st7 st14">D </text>
<text transform="matrix(1 0 0 1 1220.4541 91.8002)" class="st12 st7 st21">GTP-binding domain</text>
<text transform="matrix(1 0 0 1 1200.7018 833.6992)" class="st12 st7 st21">tRNA-binding domain</text>
<g id="TRNA-RMSD.tiff">
	<g>
		<g>
			<g>
				<g>
					<defs>
						<rect id="SVGID_00000084530395863629077680000004475229228520832154_" x="1875.4" y="855.7" width="696.1" height="600.1"/>
					</defs>
					<clipPath id="SVGID_00000115481157809084445500000002607202989296537528_">
						<use xlink:href="#SVGID_00000084530395863629077680000004475229228520832154_"  style="overflow:visible;"/>
					</clipPath>
					<g style="clip-path:url(#SVGID_00000115481157809084445500000002607202989296537528_);">
						
							<image style="overflow:visible;enable-background:new    ;" width="582" height="502" id="Layer_0_00000103957725248730571550000013542256296243138239_" xlink:href="C0AC274F67ADE54B.png"  transform="matrix(1.1959 0 0 1.1959 1875.4968 855.6424)">
						</image>
					</g>
				</g>
			</g>
		</g>
	</g>
</g>
<g id="GTP-RMSD.tiff">
	<g>
		<g>
			<g>
				<g>
					<defs>
						<rect id="SVGID_00000011019433847012271180000014238607755959548573_" x="1875.4" y="122.4" width="696.1" height="600.1"/>
					</defs>
					<clipPath id="SVGID_00000059271221049430061050000004670985477730873740_">
						<use xlink:href="#SVGID_00000011019433847012271180000014238607755959548573_"  style="overflow:visible;"/>
					</clipPath>
					<g style="clip-path:url(#SVGID_00000059271221049430061050000004670985477730873740_);">
						
							<image style="overflow:visible;enable-background:new    ;" width="582" height="502" id="Layer_0_00000029748119012132900640000006304751833641579171_" xlink:href="C0AC274F67ADE54C.png"  transform="matrix(1.1959 0 0 1.1959 1875.4968 122.319)">
						</image>
					</g>
				</g>
			</g>
		</g>
	</g>
</g>
<text transform="matrix(1 0 0 1 1993.3887 1424.7529)" class="st12 st24 st25">LCA C2</text>
<text transform="matrix(1 0 0 1 2073.2578 91.8002)" class="st12 st7 st21">GTP-binding domain</text>
<text transform="matrix(1 0 0 1 2075.0813 833.6987)" class="st12 st7 st21">tRNA-binding domain</text>
<text transform="matrix(1 0 0 1 2126.1599 1424.7533)" class="st12 st24 st25">LCA D-II</text>
<text transform="matrix(1 0 0 1 2267.269 1424.7537)" class="st12 st26 st25">E.coli </text>
<text transform="matrix(1 0 0 1 2348.969 1424.7537)" class="st12 st24 st25">C2</text>
<text transform="matrix(1 0 0 1 2409.0288 1423.7531)" class="st12 st26 st25">E.coli </text>
<text transform="matrix(1 0 0 1 2490.7288 1423.7531)" class="st12 st24 st25">D-II</text>
<text transform="matrix(1 0 0 1 1983.0724 700.3205)" class="st12 st24 st25">LCA IF2</text>
<text transform="matrix(1 0 0 1 2107.8357 700.3204)" class="st12 st24 st25">LCA EF-Tu</text>
<text transform="matrix(1 0 0 1 2266.9529 700.3202)" class="st12 st26 st25">E.coli </text>
<text transform="matrix(1 0 0 1 2348.6528 700.3202)" class="st12 st24 st25">IF2</text>
<text transform="matrix(1 0 0 1 2405.7048 700.3206)" class="st12 st26 st25">E.coli </text>
<text transform="matrix(1 0 0 1 2487.4048 700.3206)" class="st12 st24 st25">EF-Tu</text>
<line class="st27" x1="2054" y1="132.2" x2="2329.5" y2="132.2"/>
<line class="st27" x1="2191.8" y1="150.3" x2="2318.5" y2="150.3"/>
<line class="st27" x1="2356.8" y1="150.3" x2="2483.5" y2="150.3"/>
<line class="st27" x1="2054.9" y1="142.5" x2="2054.9" y2="131.2"/>
<line class="st27" x1="2192.8" y1="157.4" x2="2192.8" y2="149.8"/>
<line class="st27" x1="2328.6" y1="142.6" x2="2328.6" y2="131.4"/>
<line class="st27" x1="2317.5" y1="157.4" x2="2317.5" y2="149.9"/>
<line class="st27" x1="2357.8" y1="157.4" x2="2357.8" y2="150.7"/>
<line class="st27" x1="2482.4" y1="157.4" x2="2482.4" y2="149.8"/>
<text transform="matrix(1 0 0 1 2153.2734 145.4904)" class="st7 st28">*</text>
<text transform="matrix(1 0 0 1 2250.2334 164.9058)" class="st7 st28">*</text>
<text transform="matrix(1 0 0 1 2418.3213 164.9058)" class="st7 st28">*</text>
<line class="st27" x1="2183.7" y1="887.8" x2="2310.3" y2="887.8"/>
<line class="st27" x1="2348.6" y1="887.8" x2="2475.3" y2="887.8"/>
<line class="st27" x1="2184.7" y1="894.9" x2="2184.7" y2="887.3"/>
<line class="st27" x1="2309.3" y1="894.9" x2="2309.3" y2="887.4"/>
<line class="st27" x1="2349.6" y1="894.9" x2="2349.6" y2="888.2"/>
<line class="st27" x1="2474.3" y1="894.9" x2="2474.3" y2="887.3"/>
<text transform="matrix(1 0 0 1 2242.0725 902.4085)" class="st7 st28">*</text>
<text transform="matrix(1 0 0 1 2410.1604 902.4084)" class="st7 st28">*</text>
<text transform="matrix(0.9741 0 0 1 1108.7402 1378.8613)" class="st12 st7 st29">Phe-15</text>
<text transform="matrix(0.9741 0 0 1 1213.8516 1053.0078)" class="st12 st7 st29">Val-24</text>
<text transform="matrix(0.9741 0 0 1 1327.1729 1104.96)" class="st12 st7 st29">Gly-25</text>
<text transform="matrix(0.9741 1.180327e-02 -1.149813e-02 0.9999 1447.6561 1144.8468)" class="st12 st7 st30">Gly-72</text>
<text transform="matrix(0.9741 0 0 1 1572.0752 1293.6211)" class="st12 st7 st29">Glu-70</text>
<circle class="st20" cx="703" cy="688.6" r="15.7"/>
<circle class="st31" cx="441.6" cy="688.6" r="15.5"/>
<g transform="matrix(1,0,0,1,421.7577,152.9988)">
	<text transform="matrix(1 0 0 1 43.547 548.2236)" class="st12 st26 st32">E.coli</text>
	<text transform="matrix(1 0 0 1 106.4191 548.2236)" class="st12 st24 st32">   EF-Tu</text>
</g>
<g transform="matrix(1,0,0,1,421.7577,152.9988)">
	<text transform="matrix(1 0 0 1 302.1061 548.2236)" class="st12 st24 st32">LCA IF2/EF-Tu</text>
</g>
<g transform="matrix(1,0,0,1,421.7577,152.9988)">
	<text transform="matrix(1 0 0 1 377.2689 140.5299)" class="st12 st24 st33">G domain</text>
</g>
<g transform="matrix(1,0,0,1,421.7577,152.9988)">
	<text transform="matrix(1 0 0 1 245.1293 270.9051)" class="st12 st24 st33">D-II domain</text>
</g>
<g transform="matrix(1,0,0,1,421.7577,152.9988)">
	<text transform="matrix(1 0 0 1 360.9513 333.4114)" class="st12 st24 st33">D-III domain</text>
</g>
<g>
	<g>
		<line class="st9" x1="426.4" y1="1172.2" x2="454" y2="1164.7"/>
		<g>
			<polygon points="453.3,1174.4 465.8,1161.5 449.8,1156.3 			"/>
		</g>
	</g>
</g>
<rect x="981" y="858.7" class="st10" width="835.3" height="569.4"/>
<circle class="st31" cx="134" cy="490.1" r="15.5"/>
<g>
	<g>
		<line class="st9" x1="750.3" y1="297.2" x2="777.9" y2="289.8"/>
		<g>
			<polygon points="777.2,299.5 789.7,286.6 773.7,281.4 			"/>
		</g>
	</g>
</g>
<g>
	<g>
		<line class="st9" x1="627.1" y1="428.4" x2="654.7" y2="420.9"/>
		<g>
			<polygon points="654,430.7 666.5,417.7 650.5,412.6 			"/>
		</g>
	</g>
</g>
<g>
	<g>
		<line class="st9" x1="734.2" y1="482.2" x2="761.8" y2="474.8"/>
		<g>
			<polygon points="761.1,484.5 773.7,471.6 757.7,466.4 			"/>
		</g>
	</g>
</g>
</svg>
