<?xml version="1.0" encoding="utf-8"?>
<!-- Generator: Adobe Illustrator 25.4.1, SVG Export Plug-In . SVG Version: 6.00 Build 0)  -->
<svg version="1.1" id="Layer_1" xmlns="http://www.w3.org/2000/svg" xmlns:xlink="http://www.w3.org/1999/xlink" x="0px" y="0px"
	 viewBox="0 0 1806.7 2308" style="enable-background:new 0 0 1806.7 2308;" xml:space="preserve">
<style type="text/css">
	.st0{fill:#010101;}
	.st1{font-family:'ArialMT';}
	.st2{font-size:24px;}
	.st3{font-size:31px;}
	.st4{fill:#020202;}
	.st5{font-family:'Arial-BoldMT';}
	.st6{font-size:40px;}
	.st7{font-size:39.8398px;}
</style>
<text transform="matrix(1 0 0 1 200.018 209.9008)" class="st0 st1 st2">LCA IF2/EF-Tu A-1</text>
<text transform="matrix(1 0 0 1 52.6487 209.9009)" class="st0 st1 st2">LCA IF2 A-1</text>
<text transform="matrix(1 0 0 1 419.8321 209.9007)" class="st0 st1 st2">LCA EF-Tu A-1</text>
<text transform="matrix(1 0 0 1 179.0813 75.9268)" class="st0 st1 st3">IF2/EF-Tu Tree 1-1</text>
<text transform="matrix(1 0 0 1 199.5813 102.7268)" class="st0 st1 st3">MAFFT L-INS-i</text>
<text transform="matrix(1 0 0 1 219.3812 129.5269)" class="st0 st1 st3">LG+F+R10</text>
<text transform="matrix(1 0 0 1 208.1813 156.3268)" class="st0 st1 st3">MAD Rooting</text>
<text transform="matrix(1 0 0 1 788.6727 75.9267)" class="st0 st1 st3">IF2/EF-Tu Tree 1-2</text>
<text transform="matrix(1 0 0 1 809.1728 102.7267)" class="st0 st1 st3">MAFFT L-INS-i</text>
<text transform="matrix(1 0 0 1 828.9728 129.5268)" class="st0 st1 st3">LG+F+R10</text>
<text transform="matrix(1 0 0 1 825.8728 156.3267)" class="st0 st1 st3">MP Rooting</text>
<text transform="matrix(1 0 0 1 1359.3223 75.9269)" class="st0 st1 st3">IF2/EF-Tu Tree 1-3</text>
<text transform="matrix(1 0 0 1 1379.8223 102.727)" class="st0 st1 st3">MAFFT L-INS-i</text>
<text transform="matrix(1 0 0 1 1399.6224 129.527)" class="st0 st1 st3">LG+F+R10</text>
<text transform="matrix(1 0 0 1 1396.5223 156.3269)" class="st0 st1 st3">MV Rooting</text>
<text transform="matrix(1 0 0 1 179.0814 636.3932)" class="st0 st1 st3">IF2/EF-Tu Tree 2-1</text>
<text transform="matrix(1 0 0 1 199.5814 663.1932)" class="st0 st1 st3">MAFFT L-INS-i</text>
<text transform="matrix(1 0 0 1 224.9813 689.9932)" class="st0 st1 st3">LG+F+G4</text>
<text transform="matrix(1 0 0 1 208.1814 716.7932)" class="st0 st1 st3">MAD Rooting</text>
<text transform="matrix(1 0 0 1 1359.3221 636.3932)" class="st0 st1 st3">IF2/EF-Tu Tree 2-3</text>
<text transform="matrix(1 0 0 1 1379.8221 663.1933)" class="st0 st1 st3">MAFFT L-INS-i</text>
<text transform="matrix(1 0 0 1 1405.2222 689.9933)" class="st0 st1 st3">LG+F+G4</text>
<text transform="matrix(1 0 0 1 1396.5221 716.7932)" class="st0 st1 st3">MV Rooting</text>
<text transform="matrix(1 0 0 1 34.0217 59.6703)" class="st4 st5 st6">A</text>
<text transform="matrix(1 0 0 1 650.0164 44.8886)" class="st4 st5 st6">B</text>
<text transform="matrix(1 0 0 1 1213.4661 44.8886)" class="st4 st5 st6">C</text>
<text transform="matrix(1 0 0 1 34.0217 603.43)" class="st4 st5 st6">D</text>
<text transform="matrix(1 0 0 1 788.6725 636.3934)" class="st0 st1 st3">IF2/EF-Tu Tree 2-2</text>
<text transform="matrix(1 0 0 1 809.1725 663.1933)" class="st0 st1 st3">MAFFT L-INS-i</text>
<text transform="matrix(1 0 0 1 834.5725 689.9933)" class="st0 st1 st3">LG+F+G4</text>
<text transform="matrix(1 0 0 1 825.8725 716.7933)" class="st0 st1 st3">MP Rooting</text>
<text transform="matrix(1 0 0 1 650.016 595.6439)" class="st4 st5 st6">E</text>
<text transform="matrix(1 0 0 1 1213.4666 595.6439)" class="st4 st5 st6">F</text>
<image style="overflow:visible;" width="456" height="720" xlink:href="A8621B4A4A8305D9.png"  transform="matrix(0.3986 0 0 0.3986 35.9415 811.3228)">
</image>
<image style="overflow:visible;" width="693" height="793" xlink:href="A8621B4A4A8305DB.png"  transform="matrix(0.2367 0 0 0.2367 214.0281 829.5498)">
</image>
<image style="overflow:visible;" width="644" height="742" xlink:href="A8621B4A4A8305DE.png"  transform="matrix(0.2528 0 0 0.2528 387.1745 829.632)">
</image>
<text transform="matrix(1 0 0 1 807.0204 209.9008)" class="st0 st1 st2">LCA IF2/EF-Tu A-2</text>
<text transform="matrix(1 0 0 1 659.6515 209.9009)" class="st0 st1 st2">LCA IF2 A-2</text>
<text transform="matrix(1 0 0 1 1026.8348 209.9007)" class="st0 st1 st2">LCA EF-Tu A-2</text>
<text transform="matrix(1 0 0 1 1383.7406 209.9008)" class="st0 st1 st2">LCA IF2/EF-Tu A-3</text>
<text transform="matrix(1 0 0 1 1236.3711 209.9009)" class="st0 st1 st2">LCA IF2 A-3</text>
<text transform="matrix(1 0 0 1 1603.5546 209.9007)" class="st0 st1 st2">LCA EF-Tu A-3</text>
<text transform="matrix(1 0 0 1 202.1854 779.3924)" class="st0 st1 st2">LCA IF2/EF-Tu B-1</text>
<text transform="matrix(1 0 0 1 54.8165 779.3925)" class="st0 st1 st2">LCA IF2 B-1</text>
<text transform="matrix(1 0 0 1 422 779.3923)" class="st0 st1 st2">LCA EF-Tu B-1</text>
<text transform="matrix(1 0 0 1 809.1883 779.3924)" class="st0 st1 st2">LCA IF2/EF-Tu B-2</text>
<text transform="matrix(1 0 0 1 661.8193 779.3925)" class="st0 st1 st2">LCA IF2 B-2</text>
<text transform="matrix(1 0 0 1 1029.0027 779.3923)" class="st0 st1 st2">LCA EF-Tu B-2</text>
<text transform="matrix(1 0 0 1 1385.908 779.3924)" class="st0 st1 st2">LCA IF2/EF-Tu B-3</text>
<text transform="matrix(1 0 0 1 1238.5389 779.3925)" class="st0 st1 st2">LCA IF2 B-3</text>
<text transform="matrix(1 0 0 1 1605.7224 779.3923)" class="st0 st1 st2">LCA EF-Tu B-3</text>
<image style="overflow:visible;" width="447" height="716" xlink:href="A8621B4A4A8305DF.png"  transform="matrix(0.4008 0 0 0.4008 637.3789 811.3228)">
</image>
<image style="overflow:visible;" width="644" height="736" xlink:href="A8621B4A4A8305DA.png"  transform="matrix(0.2551 0 0 0.2551 831.2354 829.5498)">
</image>
<image style="overflow:visible;" width="679" height="725" xlink:href="A8621B4A4A8305D5.png"  transform="matrix(0.2588 0 0 0.2588 1014.8712 829.5498)">
</image>
<image style="overflow:visible;" width="445" height="753" xlink:href="A8621B4A4A8305D6.png"  transform="matrix(0.3811 0 0 0.3811 1226.9269 811.3228)">
</image>
<image style="overflow:visible;" width="621" height="709" xlink:href="A8621B4A4A8305D7.png"  transform="matrix(0.2648 0 0 0.2648 1406.0479 829.5498)">
</image>
<image style="overflow:visible;" width="632" height="682" xlink:href="A8621B4A4A8305E9.png"  transform="matrix(0.275 0 0 0.275 1591.2906 829.5909)">
</image>
<text transform="matrix(1 0 0 1 1359.3221 1215.4271)" class="st0 st1 st3">IF2/EF-Tu Tree 3-3</text>
<text transform="matrix(1 0 0 1 1408.3223 1242.2272)" class="st0 st1 st3">MUSCLE</text>
<text transform="matrix(1 0 0 1 1399.6223 1269.0272)" class="st0 st1 st3">LG+F+R10</text>
<text transform="matrix(1 0 0 1 1396.5222 1295.8273)" class="st0 st1 st3">MV Rooting</text>
<text transform="matrix(1 0 0 1 179.0813 1215.4274)" class="st0 st1 st3">IF2/EF-Tu Tree 3-1</text>
<text transform="matrix(1 0 0 1 228.0813 1242.2273)" class="st0 st1 st3">MUSCLE</text>
<text transform="matrix(1 0 0 1 219.3814 1269.0273)" class="st0 st1 st3">LG+F+R10</text>
<text transform="matrix(1 0 0 1 208.1813 1295.8274)" class="st0 st1 st3">MAD Rooting</text>
<text transform="matrix(1 0 0 1 788.6727 1215.4272)" class="st0 st1 st3">IF2/EF-Tu Tree 3-2</text>
<text transform="matrix(1 0 0 1 837.6727 1242.2273)" class="st0 st1 st3">MUSCLE</text>
<text transform="matrix(1 0 0 1 828.9727 1269.0272)" class="st0 st1 st3">LG+F+R10</text>
<text transform="matrix(1 0 0 1 825.8727 1295.8273)" class="st0 st1 st3">MP Rooting</text>
<text transform="matrix(1 0 0 1 34.0221 1192.0786)" class="st4 st5 st6">G</text>
<text transform="matrix(1 0 0 1 650.0161 1192.0782)" class="st4 st5 st6">H</text>
<text transform="matrix(1 0 0 1 1213.4666 1192.0781)" class="st4 st5 st6">I</text>
<text transform="matrix(1 0 0 1 207.7852 1359.5817)" class="st0 st1 st2">LCA IF2/EF-Tu C-1</text>
<text transform="matrix(1 0 0 1 60.4162 1359.5818)" class="st0 st1 st2">LCA IF2 C-1</text>
<text transform="matrix(1 0 0 1 427.5996 1359.5815)" class="st0 st1 st2">LCA EF-Tu C-1</text>
<text transform="matrix(1 0 0 1 814.788 1359.5817)" class="st0 st1 st2">LCA IF2/EF-Tu C-2</text>
<text transform="matrix(1 0 0 1 667.419 1359.5818)" class="st0 st1 st2">LCA IF2 C-2</text>
<text transform="matrix(1 0 0 1 1034.6024 1359.5815)" class="st0 st1 st2">LCA EF-Tu C-2</text>
<text transform="matrix(1 0 0 1 1391.5077 1359.5817)" class="st0 st1 st2">LCA IF2/EF-Tu C-3</text>
<text transform="matrix(1 0 0 1 1244.1387 1359.5818)" class="st0 st1 st2">LCA IF2 C-3</text>
<text transform="matrix(1 0 0 1 1611.322 1359.5815)" class="st0 st1 st2">LCA EF-Tu C-3</text>
<image style="overflow:visible;" width="467" height="710" xlink:href="562DF1BCC4EFD862.png"  transform="matrix(0.3981 0 0 0.3981 33.8722 1425.4764)">
</image>
<image style="overflow:visible;" width="496" height="772" xlink:href="562DF1BCC4EFD865.png"  transform="matrix(0.3661 0 0 0.3661 220.569 1425.4764)">
</image>
<image style="overflow:visible;" width="696" height="775" xlink:href="562DF1BCC4EFD866.png"  transform="matrix(0.242 0 0 0.242 408.667 1453.088)">
</image>
<image style="overflow:visible;" width="434" height="733" xlink:href="562DF1BCC4EFD864.png"  transform="matrix(0.386 0 0 0.386 650.0164 1425.3168)">
</image>
<image style="overflow:visible;" width="479" height="722" xlink:href="562DF1BCC4EFD863.png"  transform="matrix(0.3852 0 0 0.3852 831.2354 1425.4764)">
</image>
<image style="overflow:visible;" width="716" height="786" xlink:href="562DF1BCC4EFD87D.png"  transform="matrix(0.2386 0 0 0.2386 1028.0297 1453.088)">
</image>
<image style="overflow:visible;" width="437" height="672" xlink:href="562DF1BCC4EFD87E.png"  transform="matrix(0.421 0 0 0.421 1216.1863 1425.3168)">
</image>
<image style="overflow:visible;" width="463" height="725" xlink:href="562DF1BCC4EFD87C.png"  transform="matrix(0.3903 0 0 0.3903 1416.3761 1425.3168)">
</image>
<image style="overflow:visible;" width="692" height="767" xlink:href="562DF1BCC4EFD867.png"  transform="matrix(0.2445 0 0 0.2445 1614.903 1453.088)">
</image>
<image style="overflow:visible;" width="445" height="717" xlink:href="562DF1BCC4EFD869.png"  transform="matrix(0.3912 2.110387e-04 -2.110387e-04 0.3912 209.0773 250.7962)">
</image>
<image style="overflow:visible;" width="555" height="721" xlink:href="562DF1BCC4EFD899.png"  transform="matrix(0.3137 0.1321 -0.1321 0.3137 893.8293 230.401)">
</image>
<image style="overflow:visible;" width="362" height="706" xlink:href="562DF1BCC4EFD89B.png"  transform="matrix(0.3908 0 0 0.3908 1418.7922 246.345)">
</image>
<image style="overflow:visible;" width="691" height="748" xlink:href="562DF1BCC4EFD898.png"  transform="matrix(0.2509 0 0 0.2509 397.4418 281.6607)">
</image>
<image style="overflow:visible;" width="412" height="700" xlink:href="562DF1BCC4EFD887.png"  transform="matrix(0.4072 0 0 0.4072 35.9415 246.345)">
</image>
<image style="overflow:visible;" width="424" height="727" xlink:href="562DF1BCC4EFD889.png"  transform="matrix(0.3784 0 0 0.3784 1236.0662 246.5136)">
</image>
<image style="overflow:visible;" width="713" height="754" xlink:href="562DF1BCC4EFD88B.png"  transform="matrix(0.2444 0 0 0.2444 1584.5004 281.6607)">
</image>
<image style="overflow:visible;" width="674" height="753" xlink:href="562DF1BCC4EFD888.png"  transform="matrix(0.2447 0 0 0.2447 1008.2468 281.6607)">
</image>
<image style="overflow:visible;" width="394" height="699" xlink:href="562DF1BCC4EFD88F.png"  transform="matrix(0.3947 0 0 0.3947 674.6957 246.345)">
</image>
<text transform="matrix(1 0 0 1 179.0812 1826.4578)" class="st0 st1 st3">IF2/EF-Tu Tree 4-1</text>
<text transform="matrix(1 0 0 1 228.0812 1853.2578)" class="st0 st1 st3">MUSCLE</text>
<text transform="matrix(1 0 0 1 213.1812 1880.0579)" class="st0 st1 st3">WAG+F+G4</text>
<text transform="matrix(1 0 0 1 208.1812 1906.8578)" class="st0 st1 st3">MAD Rooting</text>
<text transform="matrix(1 0 0 1 788.6725 1826.458)" class="st0 st1 st3">IF2/EF-Tu Tree 4-2</text>
<text transform="matrix(1 0 0 1 837.6725 1853.2581)" class="st0 st1 st3">MUSCLE</text>
<text transform="matrix(1 0 0 1 817.1725 1880.0581)" class="st0 st1 st3">WAG+F+R10</text>
<text transform="matrix(1 0 0 1 825.8726 1906.858)" class="st0 st1 st3">MP Rooting</text>
<text transform="matrix(1 0 0 1 1350.322 1826.4575)" class="st0 st1 st3">IF2/EF-Tu Tree 4-3</text>
<text transform="matrix(1 0 0 1 1399.3221 1853.2576)" class="st0 st1 st3">MUSCLE</text>
<text transform="matrix(1 0 0 1 1378.822 1880.0576)" class="st0 st1 st3">WAG+F+R10</text>
<text transform="matrix(1 0 0 1 1387.5221 1906.8575)" class="st0 st1 st3">MV Rooting</text>
<text transform="matrix(1 0 0 1 34.022 1793.7557)" class="st4 st5 st7">J</text>
<text transform="matrix(1 0 0 1 650.0161 1793.6571)" class="st4 st5 st7">K</text>
<text transform="matrix(1 0 0 1 1204.4662 1793.795)" class="st4 st5 st6">L</text>
<text transform="matrix(1 0 0 1 211.2432 1961.3433)" class="st0 st1 st2">LCA IF2/EF-Tu D-1</text>
<text transform="matrix(1 0 0 1 63.8742 1961.3434)" class="st0 st1 st2">LCA IF2 D-1</text>
<text transform="matrix(1 0 0 1 431.0576 1961.3431)" class="st0 st1 st2">LCA EF-Tu D-1</text>
<text transform="matrix(1 0 0 1 818.246 1961.3433)" class="st0 st1 st2">LCA IF2/EF-Tu D-2</text>
<text transform="matrix(1 0 0 1 670.877 1961.3434)" class="st0 st1 st2">LCA IF2 D-2</text>
<text transform="matrix(1 0 0 1 1038.0604 1961.3431)" class="st0 st1 st2">LCA EF-Tu D-2</text>
<text transform="matrix(1 0 0 1 1385.9657 1961.3433)" class="st0 st1 st2">LCA IF2/EF-Tu D-3</text>
<text transform="matrix(1 0 0 1 1238.5967 1961.3434)" class="st0 st1 st2">LCA IF2 D-3</text>
<text transform="matrix(1 0 0 1 1605.78 1961.3431)" class="st0 st1 st2">LCA EF-Tu D-3</text>
<image style="overflow:visible;" width="412" height="706" xlink:href="562DF1BCC4EFD88A.png"  transform="matrix(0.3939 0 0 0.3939 45.6694 1993.218)">
</image>
<image style="overflow:visible;" width="466" height="793" xlink:href="562DF1BCC4EFD8B6.png"  transform="matrix(0.3507 0 0 0.3507 229.6436 1993.218)">
</image>
<image style="overflow:visible;" width="702" height="774" xlink:href="562DF1BCC4EFD8AC.png"  transform="matrix(0.2423 0 0 0.2423 419.8321 2016.5273)">
</image>
<image style="overflow:visible;" width="435" height="738" xlink:href="562DF1BCC4EFD893.png"  transform="matrix(0.3768 0 0 0.3768 651.8147 1993.218)">
</image>
<image style="overflow:visible;" width="492" height="753" xlink:href="562DF1BCC4EFD894.png"  transform="matrix(0.3693 0 0 0.3693 832.6327 1993.218)">
</image>
<image style="overflow:visible;" width="667" height="783" xlink:href="562DF1BCC4EFD897.png"  transform="matrix(0.2395 0 0 0.2395 1029.7767 2016.5273)">
</image>
<image style="overflow:visible;" width="479" height="784" xlink:href="562DF1BCC4EFD895.png"  transform="matrix(0.3555 0 0 0.3555 1226.5754 1993.218)">
</image>
<image style="overflow:visible;" width="459" height="780" xlink:href="562DF1BCC4EFD892.png"  transform="matrix(0.3566 0 0 0.3566 1424.8923 1993.218)">
</image>
<image style="overflow:visible;" width="649" height="760" xlink:href="562DF1BCC4EFD89C.png"  transform="matrix(0.2468 0 0 0.2468 1609.1024 2016.5273)">
</image>
</svg>
