<?xml version="1.0" encoding="utf-8"?>
<!-- Generator: Adobe Illustrator 26.0.2, SVG Export Plug-In . SVG Version: 6.00 Build 0)  -->
<svg version="1.1" id="Layer_1" xmlns="http://www.w3.org/2000/svg" xmlns:xlink="http://www.w3.org/1999/xlink" x="0px" y="0px"
	 viewBox="0 0 2571.7 1810" style="enable-background:new 0 0 2571.7 1810;" xml:space="preserve">
<style type="text/css">
	.st0{font-family:'Arial-BoldMT';}
	.st1{font-size:66px;}
	.st2{font-size:52px;}
	.st3{fill:none;stroke:#000000;stroke-width:3;stroke-linecap:round;stroke-linejoin:round;stroke-miterlimit:10;}
	.st4{font-family:'ArialMT';}
	.st5{font-size:40px;}
	.st6{font-family:'Arial-ItalicMT';}
</style>
<text transform="matrix(1 0 0 1 23.5499 84.1105)" class="st0 st1">A</text>
<text transform="matrix(1 0 0 1 531.0499 122.0996)" class="st0 st2">IF2 Tree</text>
<text transform="matrix(1 0 0 1 1874.9495 122.0996)" class="st0 st2">EF-Tu Tree</text>
<text transform="matrix(1 0 0 1 1428.1416 84.1103)" class="st0 st1">B</text>
<g>
	<g transform="translate(6,6)">
		<line class="st3" x1="306.7" y1="1613.2" x2="385.2" y2="1613.2"/>
		<text transform="matrix(1 0 0 1 227.4053 1665.1122)" class="st4 st5">0.7 aa sub./site</text>
		<path class="st3" d="M562.8,288.4l42.3-27.7v55.4L562.8,288.4z"/>
		<path class="st3" d="M534.2,454.4l113.2-27.7V482L534.2,454.4z"/>
		<path class="st3" d="M333,1560.7l470.9-27.6v55.3L333,1560.7z"/>
		<path class="st3" d="M513,177.8l265.9-27.7v55.3L513,177.8z"/>
		<path class="st3" d="M519.1,233.1l85.2-27.7v55.3L519.1,233.1z"/>
		<path class="st3" d="M436.8,620.3l195.9-27.7v55.3L436.8,620.3z"/>
		<path class="st3" d="M462.8,1228.8l132.5-27.7v55.3L462.8,1228.8z"/>
		<path class="st3" d="M459.4,1062.9l121.9-27.7v55.3L459.4,1062.9z"/>
		<path class="st3" d="M444,675.7L591,648v55.3L444,675.7z"/>
		<path class="st3" d="M579.4,509.7l54.9-27.7v55.3L579.4,509.7z"/>
		<path class="st3" d="M553.8,841.6L683,813.9v55.3L553.8,841.6z"/>
		<path class="st3" d="M520.8,1007.6L772,979.9v55.3L520.8,1007.6z"/>
		<path class="st3" d="M478,786.3l145-27.7v55.3L478,786.3z"/>
		<path class="st3" d="M473.4,1394.8l131.5-27.7v55.3L473.4,1394.8z"/>
		<path class="st3" d="M393.8,1505.4l77.4-27.7v55.3L393.8,1505.4z"/>
		<path class="st3" d="M542.4,399.1l28.4-27.7v55.3L542.4,399.1z"/>
		<path class="st3" d="M426.8,896.9l130.4-27.7v55.3L426.8,896.9z"/>
		<path class="st3" d="M462.5,952.2l181.6-27.7v55.3L462.5,952.2z"/>
		<path class="st3" d="M478.7,1118.2l167.5-27.7v55.3L478.7,1118.2z"/>
		<path class="st3" d="M467,343.8l267.5-27.7v55.3L467,343.8z"/>
		<path class="st3" d="M515.5,1284.1l176.3-27.7v55.3L515.5,1284.1z"/>
		<path class="st3" d="M470.6,1450.1l106.8-27.7v55.3L470.6,1450.1z"/>
		<path class="st3" d="M595.2,1339.5H434.6v-27.7"/>
		<path class="st3" d="M389.8,828.9h-7.6v137.8"/>
		<path class="st3" d="M462.8,1228.8h-74.3v41.5"/>
		<path class="st3" d="M553.8,841.6H396.9V719.3"/>
		<path class="st3" d="M411.1,1145.8h-12.5v-41.5"/>
		<path class="st3" d="M459.4,1062.9h-60.8v41.5"/>
		<path class="st3" d="M478.7,1118.2h-67.6v27.7"/>
		<path class="st3" d="M595.4,731H424.3v-27.7"/>
		<path class="st3" d="M462.5,952.2h-21.2v27.7"/>
		<path class="st3" d="M416,558.1h-3.9V449.2"/>
		<path class="st3" d="M415.2,744.8h-9.1V597"/>
		<path class="st3" d="M333,1560.7H56.7v-86.4"/>
		<path class="st3" d="M444,675.7h-19.6v27.7"/>
		<path class="st3" d="M434.6,1311.8h-46.1v-41.5"/>
		<path class="st3" d="M382.2,966.6h-9.1v151.9"/>
		<path class="st3" d="M470.6,1450.1h-87.5v-27.7"/>
		<path class="st3" d="M579.4,509.7H470.6v27.7"/>
		<path class="st3" d="M489.2,219.3h-41.6v62.2"/>
		<path class="st3" d="M473.4,1394.8h-90.3v27.7"/>
		<path class="st3" d="M411.5,938.4h-21.7V828.9"/>
		<path class="st3" d="M428.4,495.9H416v62.2"/>
		<path class="st3" d="M591.6,565h-121v-27.7"/>
		<path class="st3" d="M426.8,896.9h-15.3v41.5"/>
		<path class="st3" d="M542.4,399.1h-111v-58.8"/>
		<path class="st3" d="M383,1422.4h-20.3v-152"/>
		<path class="st3" d="M333,1387.9H56.7v86.4"/>
		<path class="st3" d="M406,597h-9.1v122.3"/>
		<path class="st3" d="M436.8,620.3H416v-62.2"/>
		<path class="st3" d="M562.8,288.4h-64.6v-27.7"/>
		<path class="st3" d="M441.2,979.9h-29.8v-41.5"/>
		<path class="st3" d="M519.1,233.1h-20.8v27.7"/>
		<path class="st3" d="M470.6,537.4h-42.2v-41.5"/>
		<path class="st3" d="M534.2,454.4H428.4v41.5"/>
		<path class="st3" d="M467,343.8h-19.4v-62.2"/>
		<path class="st3" d="M478,786.3h-62.8v-41.5"/>
		<path class="st3" d="M515.5,1284.1h-80.9v27.7"/>
		<path class="st3" d="M412.1,449.2h-6V597"/>
		<path class="st3" d="M431.4,340.3h-19.3v108.9"/>
		<path class="st3" d="M498.2,260.8h-9v-41.5"/>
		<path class="st3" d="M393.8,1505.4H333v-117.5"/>
		<path class="st3" d="M388.5,1270.3h-15.4v-151.9"/>
		<path class="st3" d="M447.6,281.5h-16.2v58.8"/>
		<path class="st3" d="M398.6,1104.4h-16.4V966.6"/>
		<path class="st3" d="M520.8,1007.6h-79.5v-27.7"/>
		<path class="st3" d="M373.1,1118.5h-10.3v152"/>
		<path class="st3" d="M592.9,1173.5H411.1v-27.7"/>
		<path class="st3" d="M362.8,1270.4H333v117.5"/>
		<path class="st3" d="M424.3,703.3h-9.2v41.5"/>
		<path class="st3" d="M513,177.8h-23.8v41.5"/>
		<path class="st3" d="M17.5,1474.3h39.3"/>
		<path class="st3" d="M396.9,719.3h-7.1v109.6"/>
	</g>
	<g transform="matrix(1,0,0,1,556.8809,198.2103)">
		<text transform="matrix(1 0 0 1 106.327 441.4432)" class="st4 st5">Actinobacteria</text>
	</g>
	<g transform="matrix(1,0,0,1,541.5778,446.9545)">
		<text transform="matrix(1 0 0 1 84.1955 801.1804)" class="st4 st5">Synergistetes</text>
	</g>
	<g transform="matrix(1,0,0,1,545.5956,62.5316)">
		<text transform="matrix(1 0 0 1 90.0059 245.2234)" class="st4 st5">Acidithiobacilla</text>
	</g>
	<g transform="matrix(1,0,0,1,577.4409,288.6627)">
		<text transform="matrix(1 0 0 1 136.0609 572.2563)" class="st4 st5">Chlamydiae</text>
	</g>
	<g transform="matrix(1,0,0,1,545.2755,39.9184)">
		<text transform="matrix(1 0 0 1 89.5427 212.5201)" class="st4 st5">Betaproteobacteria</text>
	</g>
	<g transform="matrix(1,0,0,1,562.8841,130.3709)">
		<text transform="matrix(1 0 0 1 115.0084 343.3334)" class="st4 st5">Epsilonproteobacteria</text>
	</g>
	<g transform="matrix(1,0,0,1,535.8988,379.1152)">
		<text transform="matrix(1 0 0 1 75.9819 703.0704)" class="st4 st5">Chloroflexi</text>
	</g>
	<g transform="matrix(1,0,0,1,562.3993,401.7283)">
		<text transform="matrix(1 0 0 1 114.3076 735.7737)" class="st4 st5">Cyanobacteria</text>
	</g>
	<g transform="matrix(1,0,0,1,598.5126,85.1447)">
		<text transform="matrix(1 0 0 1 166.5351 277.9267)" class="st4 st5">Alphaproteobacteria</text>
	</g>
	<g transform="matrix(1,0,0,1,552.9108,266.0496)">
		<text transform="matrix(1 0 0 1 100.5852 539.5541)" class="st4 st5">Spirochaetes</text>
	</g>
	<g transform="matrix(1,0,0,1,581.057,469.5676)">
		<text transform="matrix(1 0 0 1 141.2905 833.8837)" class="st4 st5">Deinococcus-Thermus</text>
	</g>
	<g transform="matrix(1,0,0,1,561.5278,333.8889)">
		<text transform="matrix(1 0 0 1 113.0473 637.6639)" class="st4 st5">Firmicutes</text>
	</g>
	<g transform="matrix(1,0,0,1,626.8582,582.6332)">
		<text transform="matrix(1 0 0 1 207.5284 997.4001)" class="st4 st5">Archaea</text>
	</g>
	<g transform="matrix(1,0,0,1,539.8469,220.8234)">
		<text transform="matrix(1 0 0 1 81.692 474.1475)" class="st4 st5">Deltaproteobacteria</text>
	</g>
	<g transform="matrix(1,0,0,1,490.853,560.0201)">
		<text transform="matrix(1 0 0 1 10.8364 964.6968)" class="st4 st5">Aquificae</text>
	</g>
	<g transform="matrix(1,0,0,1,534.2708,537.407)">
		<text transform="matrix(1 0 0 1 73.6275 931.9935)" class="st4 st5">Fusobacteria</text>
	</g>
	<g transform="matrix(1,0,0,1,557.5442,152.984)">
		<text transform="matrix(1 0 0 1 107.2858 376.0367)" class="st4 st5">Chlorobi</text>
	</g>
	<g transform="matrix(1,0,0,1,613.8184,356.5021)">
		<text transform="matrix(1 0 0 1 188.6698 670.3671)" class="st4 st5">Tenericutes</text>
	</g>
	<g transform="matrix(1,0,0,1,545.5262,514.7939)">
		<text transform="matrix(1 0 0 1 89.9053 899.2902)" class="st4 st5">Thermotogae</text>
	</g>
	<g transform="matrix(1,0,0,1,616.6621,17.3053)">
		<text transform="matrix(1 0 0 1 192.7831 179.8168)" class="st4 st5">Gammaproteobacteria</text>
	</g>
	<g transform="matrix(1,0,0,1,526.0412,311.2758)">
		<text transform="matrix(1 0 0 1 61.7263 604.9607)" class="st4 st5">Firmicutes</text>
	</g>
	<g transform="matrix(1,0,0,1,531.5469,107.7578)">
		<text transform="matrix(1 0 0 1 69.6884 310.6301)" class="st4 st5">Zetaproteobacteria</text>
	</g>
</g>
<text transform="matrix(1 0 0 1 627.8722 586.038)" class="st6 st5">Cytophaga hutchinsonii</text>
<g transform="matrix(1,0,0,1,538.2494,288.6627)">
	<text transform="matrix(1.0045 0 0 1 83.131 456.5111)" class="st6 st5">Bdellovibrio bacteriovorus</text>
</g>
<g transform="matrix(1,0,0,1,539.3583,424.3414)">
	<text transform="matrix(1.0045 0 0 1 85.2614 769.3881)" class="st6 st5">Rhodopirellula baltica</text>
</g>
<g transform="matrix(1,0,0,1,539.9191,492.1807)">
	<text transform="matrix(1.0045 0 0 1 95.6214 868.2402)" class="st6 st5">Armatimonadetes bacterium</text>
</g>
<g>
	<g>
		<g transform="translate(6,6)">
			<line class="st3" x1="1705.6" y1="1626.3" x2="1817.4" y2="1626.3"/>
			<path class="st3" d="M1894,375l147.2-23.5v46.9L1894,375z"/>
			<path class="st3" d="M1868.9,1032.2l164.5-23.5v46.9L1868.9,1032.2z"/>
			<path class="st3" d="M1865,187.4l128.2-23.5v46.9L1865,187.4z"/>
			<path class="st3" d="M1713.8,1595.4l418.1-23.5v46.9L1713.8,1595.4z"/>
			<path class="st3" d="M1839.4,1407.6l48.7-23.5v46.9L1839.4,1407.6z"/>
			<path class="st3" d="M1761.6,1501.5l106.5-23.5v46.9L1761.6,1501.5z"/>
			<path class="st3" d="M1879.9,328.2l43-23.5v46.9L1879.9,328.2z"/>
			<path class="st3" d="M1813.2,1313.7l130-23.5v46.9L1813.2,1313.7z"/>
			<path class="st3" d="M1886.9,703.6l143.6-23.5v47L1886.9,703.6z"/>
			<path class="st3" d="M1929.2,468.9l28.6-23.5v46.9L1929.2,468.9z"/>
			<path class="st3" d="M1909,281.2l14.5-23.5v46.9L1909,281.2z"/>
			<path class="st3" d="M1770.8,1454.6l83.4-23.5v46.9L1770.8,1454.6z"/>
			<path class="st3" d="M1753.5,1548.5l118.8-23.5v46.9L1753.5,1548.5z"/>
			<path class="st3" d="M1872.5,656.7l167.8-23.5v46.9L1872.5,656.7z"/>
			<path class="st3" d="M1887.4,985.3l104.9-23.5v46.9L1887.4,985.3z"/>
			<path class="st3" d="M1905.7,1126.1l117.7-23.5v46.9L1905.7,1126.1z"/>
			<path class="st3" d="M1873,234.3l83-23.5v46.9L1873,234.3z"/>
			<path class="st3" d="M1899.1,609.7l24.2-23.5v46.9L1899.1,609.7z"/>
			<path class="st3" d="M1909.9,1079.1l66.9-23.5v46.9L1909.9,1079.1z"/>
			<path class="st3" d="M1883.7,844.4l121.6-23.5v46.9L1883.7,844.4z"/>
			<path class="st3" d="M1973.5,891.4l46.7-23.5v46.9L1973.5,891.4z"/>
			<path class="st3" d="M1910.1,750.5l93-23.5v46.9L1910.1,750.5z"/>
			<path class="st3" d="M1947.7,1172.9l113.8-23.5v46.9L1947.7,1172.9z"/>
			<path class="st3" d="M1890.9,797.5l92.3-23.5v46.9L1890.9,797.5z"/>
			<path class="st3" d="M1855.4,1360.7l156.6-23.5v46.9L1855.4,1360.7z"/>
			<path class="st3" d="M1709.9,1497.1h-461.1v49.1"/>
			<path class="st3" d="M1830.4,400.7h-15.5V616"/>
			<path class="st3" d="M1973.5,891.4h-94.1v23.5"/>
			<path class="st3" d="M1794.4,1127.6h-12v116.5"/>
			<path class="st3" d="M1739.1,1390.2h-12.5v55.7"/>
			<path class="st3" d="M1910.1,750.5h-33.5V727"/>
			<path class="st3" d="M1855.4,1360.7h-73.1v-116.5"/>
			<path class="st3" d="M1887.4,985.3h-43v-82.2"/>
			<path class="st3" d="M1830.3,831.3h-15.5V616"/>
			<path class="st3" d="M1905.7,1126.1h-41.4v35.2"/>
			<path class="st3" d="M1868.9,1032.2h-15.3v23.5"/>
			<path class="st3" d="M1917.9,515.8h-53.8v-52.7"/>
			<path class="st3" d="M1814.9,616h-4.4v325.5"/>
			<path class="st3" d="M1884.5,445.4h-13.2v-35.2"/>
			<path class="st3" d="M2037.3,422h-152.9v23.5"/>
			<path class="st3" d="M1864.3,1161.2h-20.6v-52.8"/>
			<path class="st3" d="M1782.5,1244.2h-9.5v81.7"/>
			<path class="st3" d="M1909,281.2h-44.2v-23.5"/>
			<path class="st3" d="M1212.9,1546.3h35.9"/>
			<path class="st3" d="M2010.5,1219.9h-128.4v-23.5"/>
			<path class="st3" d="M1713.8,1595.4h-465.1v-49.1"/>
			<path class="st3" d="M1882.1,1196.4h-17.7v-35.2"/>
			<path class="st3" d="M1890.9,797.5h-22.1v-35.2"/>
			<path class="st3" d="M1761.6,1501.5h-35v-55.7"/>
			<path class="st3" d="M1859.2,292.9h-8.3v-52.8"/>
			<path class="st3" d="M1864.8,257.8h-5.7V293"/>
			<path class="st3" d="M1753.5,1548.5h-43.6v-51.3"/>
			<path class="st3" d="M1947.7,1172.9H1882v23.5"/>
			<path class="st3" d="M1886.9,703.6h-10.4v23.5"/>
			<path class="st3" d="M1919.7,562.8h-68v-49.9"/>
			<path class="st3" d="M1871.2,410.3h-7.2v52.8"/>
			<path class="st3" d="M1883.7,844.4h-22.6v35.2"/>
			<path class="st3" d="M1864.1,463.1h-12.4V513"/>
			<path class="st3" d="M1868.8,762.2h-19.9v58.6"/>
			<path class="st3" d="M1848.9,821h-4.6v82.1"/>
			<path class="st3" d="M1839.4,1407.6H1773v-81.7"/>
			<path class="st3" d="M1879.6,914.8h-18.5v-35.2"/>
			<path class="st3" d="M1813.2,1313.7h-18.8v-186.2"/>
			<path class="st3" d="M1909.9,1079.1h-56.4v-23.5"/>
			<path class="st3" d="M1843.8,1108.4h-9.1v-102.6"/>
			<path class="st3" d="M1865,187.4h-14.2v52.7"/>
			<path class="st3" d="M1955.6,1266.8h-145.2V941.4"/>
			<path class="st3" d="M1876.7,727.1h-7.9v35.2"/>
			<path class="st3" d="M1726.6,1445.9h-16.7v51.3"/>
			<path class="st3" d="M1773,1325.9h-33.9v64.3"/>
			<path class="st3" d="M1861.1,879.6H1849V821"/>
			<path class="st3" d="M1834.7,1005.8h-4.3V831.3"/>
			<path class="st3" d="M1991.5,938.3h-112v-23.5"/>
			<path class="st3" d="M1810.4,941.4h-16v186.2"/>
			<path class="st3" d="M1879.9,328.2h-20.7V293"/>
			<path class="st3" d="M1899.1,609.7h-60.7v-48.4"/>
			<path class="st3" d="M1851.8,512.9h-13.2v48.4"/>
			<path class="st3" d="M1929.2,468.9h-44.8v-23.5"/>
			<path class="st3" d="M1853.6,1055.7h-9.8v52.8"/>
			<path class="st3" d="M1873,234.3h-8.2v23.5"/>
			<path class="st3" d="M1844.3,903.1h-9.7v102.6"/>
			<path class="st3" d="M1850.8,240.1h-20.4v160.6"/>
			<path class="st3" d="M1894,375h-22.8v35.2"/>
			<path class="st3" d="M1838.4,561.3h-8V400.7"/>
			<path class="st3" d="M1770.8,1454.6h-31.7v-64.3"/>
			<path class="st3" d="M1872.5,656.7h-42.2v174.5"/>
			<text transform="matrix(1 0 0 1 1889.6139 1513.4606)" class="st4 st5">Thermotogae</text>
		</g>
		<g transform="matrix(1,0,0,1,714.8413,648.2697)">
			<text transform="matrix(1 0 0 1 1185.0245 919.1957)" class="st4 st5">Chloroflexi</text>
		</g>
		<g transform="matrix(1,0,0,1,783.4639,343.4631)">
			<text transform="matrix(1 0 0 1 1269.53 565.8344)" class="st4 st5">Aquificae</text>
		</g>
		<g transform="matrix(1,0,0,1,802.6036,474.0945)">
			<text transform="matrix(1 0 0 1 1291.6511 718.954)" class="st4 st5">Chlamydiae</text>
		</g>
		<g transform="matrix(1,0,0,1,788.2545,256.3756)">
			<text transform="matrix(1 0 0 1 1275.0673 467.316)" class="st4 st5">Tenericutes</text>
		</g>
		<g transform="matrix(1,0,0,1,736.8594,191.0599)">
			<text transform="matrix(1 0 0 1 1215.6646 389.6888)" class="st6 st5">Bdellovibrio bacteriovorus</text>
		</g>
		<g transform="matrix(1,0,0,1,776.5124,321.6912)">
			<text transform="matrix(1 0 0 1 1261.4952 543.8759)" class="st4 st5">Firmicutes</text>
		</g>
		<g transform="matrix(1,0,0,1,775.5479,278.1475)">
			<text transform="matrix(1 0 0 1 1260.3806 493.5495)" class="st4 st5">Firmicutes</text>
		</g>
		<g transform="matrix(1,0,0,1,722.1851,582.954)">
			<text transform="matrix(1 0 0 1 1193.5129 842.6351)" class="st4 st5">Chlorobi</text>
		</g>
		<g transform="matrix(1,0,0,1,779.6731,561.1821)">
			<text transform="matrix(1 0 0 1 1259.9583 817.4708)" class="st4 st5">Spirochaetes</text>
		</g>
		<g transform="matrix(1,0,0,1,747.752,539.4102)">
			<text transform="matrix(1 0 0 1 1228.2546 792.3087)" class="st4 st5">Deltaproteobacteria</text>
		</g>
		<g transform="matrix(1,0,0,1,770.4738,387.0069)">
			<text transform="matrix(1 0 0 1 1254.5143 616.1627)" class="st4 st5">Deinococcus-Thermus</text>
		</g>
		<g transform="matrix(1,0,0,1,763.3196,430.5507)">
			<text transform="matrix(1 0 0 1 1246.2483 666.4905)" class="st4 st5">Fusobacteria</text>
		</g>
		<g transform="matrix(1,0,0,1,770.9358,16.8847)">
			<text transform="matrix(1 0 0 1 1261.9299 192.6521)" class="st4 st5">Gammaproteobacteria</text>
		</g>
		<g transform="matrix(1,0,0,1,784.9425,452.3226)">
			<text transform="matrix(1 0 0 1 1271.2377 691.6545)" class="st4 st5">Cyanobacteria</text>
		</g>
		<g transform="matrix(1,0,0,1,753.5088,517.6383)">
			<text transform="matrix(1 0 0 1 1229.7173 767.1436)" class="st6 st5">Rhodopirellula baltica</text>
		</g>
		<g transform="matrix(1,0,0,1,789.5279,408.7788)">
			<text transform="matrix(1 0 0 1 1276.5393 642.3942)" class="st4 st5">Actinobacteria</text>
		</g>
		<g transform="matrix(1,0,0,1,735.992,169.288)">
			<text transform="matrix(1 0 0 1 1214.6641 364.5252)" class="st6 st5">Magnetococcus marinus</text>
		</g>
		<g transform="matrix(1,0,0,1,770.1488,365.235)">
			<text transform="matrix(1 0 0 1 1254.1398 590.9986)" class="st6 st5">Armatimonadetes bacterium</text>
		</g>
		<g transform="matrix(1,0,0,1,738.3379,82.2004)">
			<text transform="matrix(1 0 0 1 1224.2534 263.8706)" class="st4 st5">Betaproteobacteria</text>
		</g>
		<g transform="matrix(1,0,0,1,738.5674,212.8318)">
			<text transform="matrix(1 0 0 1 1217.6382 414.8535)" class="st4 st5">Alphaproteobacteria</text>
		</g>
		<g transform="matrix(1,0,0,1,754.5059,147.5161)">
			<text transform="matrix(1 0 0 1 1242.9421 342.5666)" class="st4 st5">Zetaproteobacteria</text>
		</g>
		<g transform="matrix(1,0,0,1,753.6677,38.6566)">
			<text transform="matrix(1 0 0 1 1241.9724 217.8152)" class="st4 st5">Betaproteobacteria</text>
		</g>
		<g transform="matrix(1,0,0,1,791.3974,125.7442)">
			<text transform="matrix(1 0 0 1 1285.58 314.1982)" class="st6 st5">Wolbachia pipientis</text>
		</g>
		<g transform="matrix(1,0,0,1,793.1848,103.9723)">
			<text transform="matrix(1 0 0 1 1287.6458 291.17)" class="st4 st5">Alphaproteobacteria</text>
		</g>
		<g transform="matrix(1,0,0,1,738.6498,60.4285)">
			<text transform="matrix(1 0 0 1 1224.6154 242.9803)" class="st4 st5">Acidithiobacilla</text>
		</g>
		<g transform="matrix(1,0,0,1,778.953,495.8664)">
			<text transform="matrix(1 0 0 1 1264.3151 741.9805)" class="st6 st5">Cytophaga hutchinsonii</text>
		</g>
		<g transform="matrix(1,0,0,1,706.4919,604.7259)">
			<text transform="matrix(1 0 0 1 1175.3751 867.8002)" class="st4 st5">Synergistetes</text>
		</g>
		<g transform="matrix(1,0,0,1,792.7772,234.6037)">
			<text transform="matrix(1 0 0 1 1280.2916 441.0848)" class="st4 st5">Epsilonproteobacteria</text>
		</g>
		<g transform="matrix(1,0,0,1,835.2538,670.0416)">
			<text transform="matrix(1 0 0 1 1324.1959 943.2911)" class="st4 st5">Archaea</text>
		</g>
		<g transform="matrix(1,0,0,1,766.2911,299.9194)">
			<text transform="matrix(1 0 0 1 1249.6804 517.6438)" class="st4 st5">Firmicutes</text>
		</g>
	</g>
	<text transform="matrix(1 0 0 1 1635.8405 1672.5641)" class="st4 st5">0.3 aa sub./site</text>
</g>
</svg>
